<svg width="56" height="56" viewBox="0 0 56 56" fill="none" xmlns="http://www.w3.org/2000/svg">
<rect x="5.79321" y="12.5518" width="44.4138" height="30.8966" rx="4" fill="#E7E8FD"/>
<path d="M49.0001 23.3334V21.0001H7.00008V23.3334H49.0001ZM49.0001 25.6667H7.00008V38.5001C7.00008 40.4331 8.56709 42.0001 10.5001 42.0001H45.5001C47.4331 42.0001 49.0001 40.4331 49.0001 38.5001V25.6667ZM49.0001 18.6667V17.5001C49.0001 15.5671 47.4331 14.0001 45.5001 14.0001H10.5001C8.56709 14.0001 7.00008 15.5671 7.00008 17.5001V18.6667H49.0001ZM39.667 39.0426C37.8692 40.0828 35.5487 39.815 34.0336 38.2999C32.2111 36.4775 32.2111 33.5227 34.0336 31.7003C35.5462 30.1877 37.8659 29.9156 39.667 30.9576C40.3533 30.5606 41.1502 30.3334 42.0001 30.3334C44.5774 30.3334 46.6668 32.4228 46.6668 35.0001C46.6668 37.5774 44.5774 39.6668 42.0001 39.6668C41.1502 39.6668 40.3534 39.4396 39.667 39.0426ZM37.9163 37.2603C37.5449 36.5907 37.3334 35.8201 37.3334 35.0001C37.3334 34.1801 37.5449 33.4094 37.9164 32.7398C37.1394 32.5403 36.2839 32.7498 35.6835 33.3502C34.7723 34.2614 34.7723 35.7388 35.6835 36.65C36.2847 37.2512 37.1402 37.4595 37.9163 37.2603ZM4.66675 17.5001C4.66675 14.2784 7.27842 11.6667 10.5001 11.6667H45.5001C48.7217 11.6667 51.3334 14.2784 51.3334 17.5001V38.5001C51.3334 41.7217 48.7217 44.3334 45.5001 44.3334H10.5001C7.27842 44.3334 4.66675 41.7217 4.66675 38.5001V17.5001ZM42.0001 37.3334C43.2887 37.3334 44.3334 36.2887 44.3334 35.0001C44.3334 33.7114 43.2887 32.6668 42.0001 32.6668C40.7114 32.6668 39.6668 33.7114 39.6668 35.0001C39.6668 36.2887 40.7114 37.3334 42.0001 37.3334Z" fill="#131CE7"/>
</svg>
