<svg width="39" height="38" viewBox="0 0 39 38" fill="none" xmlns="http://www.w3.org/2000/svg">
<path d="M19.749 38C9.25561 38 0.749023 29.4934 0.749023 19C0.749023 8.50659 9.25561 0 19.749 0C30.2424 0 38.749 8.50659 38.749 19C38.749 29.4934 30.2424 38 19.749 38ZM19.749 36.1C29.1931 36.1 36.849 28.4441 36.849 19C36.849 9.55593 29.1931 1.9 19.749 1.9C10.305 1.9 2.64902 9.55593 2.64902 19C2.64902 28.4441 10.305 36.1 19.749 36.1ZM25.7273 13.5782C26.0983 13.2072 26.6998 13.2072 27.0708 13.5782C27.4418 13.9492 27.4418 14.5508 27.0708 14.9218L17.5708 24.4218C17.1998 24.7927 16.5983 24.7927 16.2273 24.4218L12.4273 20.6218C12.0563 20.2508 12.0563 19.6492 12.4273 19.2782C12.7983 18.9072 13.3998 18.9072 13.7708 19.2782L16.899 22.4065L25.7273 13.5782Z" fill="white"/>
</svg>
