<svg width="32" height="32" viewBox="0 0 32 32" fill="none" xmlns="http://www.w3.org/2000/svg">
<path d="M14.6667 24.3905V14C14.6667 13.6318 14.9651 13.3333 15.3333 13.3333C15.7015 13.3333 16 13.6318 16 14V24.3905L18.8619 21.5286C19.1223 21.2682 19.5444 21.2682 19.8047 21.5286C20.0651 21.7889 20.0651 22.2111 19.8047 22.4714L15.8047 26.4714C15.5444 26.7317 15.1223 26.7317 14.8619 26.4714L10.8619 22.4714C10.6016 22.2111 10.6016 21.7889 10.8619 21.5286C11.1223 21.2682 11.5444 21.2682 11.8047 21.5286L14.6667 24.3905ZM20.9919 9.33333H22C25.3137 9.33333 28 12.0196 28 15.3333C28 18.647 25.3137 21.3333 22 21.3333C21.6318 21.3333 21.3333 21.0349 21.3333 20.6667C21.3333 20.2985 21.6318 20 22 20C24.5773 20 26.6667 17.9107 26.6667 15.3333C26.6667 12.756 24.5773 10.6667 22 10.6667H21.2967C21.3209 10.8856 21.3333 11.108 21.3333 11.3333C21.3333 11.7015 21.0349 12 20.6667 12C20.2985 12 20 11.7015 20 11.3333C20 8.756 17.9107 6.66666 15.3333 6.66666H14.6667C11.7211 6.66666 9.33333 9.05448 9.33333 12V12.6667C9.33333 13.0349 9.03486 13.3333 8.66667 13.3333C6.82572 13.3333 5.33333 14.8257 5.33333 16.6667C5.33333 18.5076 6.82572 20 8.66667 20C9.03486 20 9.33333 20.2985 9.33333 20.6667C9.33333 21.0349 9.03486 21.3333 8.66667 21.3333C6.08934 21.3333 4 19.244 4 16.6667C4 14.3157 5.73847 12.3707 8 12.0473C8 8.3181 10.9848 5.33333 14.6667 5.33333H15.3333C17.9458 5.33333 20.1682 7.00294 20.9919 9.33333Z" fill="#131CE7"/>
</svg>
