<svg width="56" height="56" viewBox="0 0 56 56" fill="none" xmlns="http://www.w3.org/2000/svg">
<circle cx="28.0001" cy="28" r="22.8148" fill="#E7E8FD"/>
<path d="M25.6667 48.8718V45.9832L21.3418 41.6583C21.123 41.4395 21.0001 41.1427 21.0001 40.8333V34.3165L19.0085 32.3249C18.7897 32.1061 18.6667 31.8094 18.6667 31.5V29.1666C18.6667 28.5223 19.1891 28 19.8334 28H31.5001C33.4331 28 35.0001 29.567 35.0001 31.5V33.8333C35.0001 34.4776 35.5224 35 36.1667 35C38.0997 35 39.6668 36.567 39.6668 38.5C39.6668 39.1443 40.1891 39.6666 40.8334 39.6666H45.4638C47.6975 36.3297 49.0001 32.317 49.0001 28C49.0001 18.8564 43.1564 11.0778 35.0001 8.1949V10.5C35.0001 13.7216 32.3884 16.3333 29.1667 16.3333H26.8334C26.1891 16.3333 25.6667 16.8556 25.6667 17.5V19.8333C25.6667 21.7663 24.0997 23.3333 22.1667 23.3333H18.6667V24.5C18.6667 24.8094 18.5438 25.1061 18.325 25.3249L15.9917 27.6583C15.5361 28.1139 14.7974 28.1139 14.3418 27.6583L8.06449 21.381C7.37393 23.4619 7.00008 25.6873 7.00008 28C7.00008 38.8093 15.1669 47.7111 25.6667 48.8718ZM28.0001 49C34.2196 49 39.8076 46.2962 43.6528 42H40.8334C38.9004 42 37.3334 40.433 37.3334 38.5C37.3334 37.8556 36.8111 37.3333 36.1667 37.3333C34.2338 37.3333 32.6667 35.7663 32.6667 33.8333V31.5C32.6667 30.8556 32.1444 30.3333 31.5001 30.3333H21.0001V31.0167L22.9917 33.0083C23.2105 33.2271 23.3334 33.5239 23.3334 33.8333V40.35L27.6584 44.675C27.8772 44.8938 28.0001 45.1905 28.0001 45.5V49ZM27.0452 51.3141C26.9765 51.3267 26.9057 51.3333 26.8334 51.3333C26.719 51.3333 26.6084 51.3168 26.5038 51.2861C14.3144 50.5147 4.66675 40.384 4.66675 28C4.66675 15.1133 15.1134 4.66663 28.0001 4.66663C40.8867 4.66663 51.3334 15.1133 51.3334 28C51.3334 40.8866 40.8867 51.3333 28.0001 51.3333C27.6803 51.3333 27.3619 51.3269 27.0452 51.3141ZM9.00887 19.0255L15.1667 25.1834L16.3334 24.0167V22.1666C16.3334 21.5223 16.8558 21 17.5001 21H22.1667C22.8111 21 23.3334 20.4776 23.3334 19.8333V17.5C23.3334 15.567 24.9004 14 26.8334 14H29.1667C31.0997 14 32.6667 12.433 32.6667 10.5V7.52033C31.1659 7.17977 29.604 6.99996 28.0001 6.99996C19.6128 6.99996 12.374 11.9169 9.00887 19.0255Z" fill="#131CE7"/>
</svg>
