<svg width="18" height="18" viewBox="0 0 18 18" fill="none" xmlns="http://www.w3.org/2000/svg">
<path d="M9 14C6.23858 14 4 11.7614 4 9C4 6.23858 6.23858 4 9 4C11.7614 4 14 6.23858 14 9C14 11.7614 11.7614 14 9 14ZM9 13C11.2091 13 13 11.2091 13 9C13 6.79086 11.2091 5 9 5C6.79086 5 5 6.79086 5 9C5 11.2091 6.79086 13 9 13ZM14.1446 15.1267C14.356 14.949 14.6714 14.9763 14.8491 15.1877C15.0268 15.399 14.9995 15.7144 14.7881 15.8921C13.1784 17.2453 11.1467 18 9 18C4.02944 18 0 13.9706 0 9C0 4.02944 4.02944 0 9 0C13.9706 0 18 4.02944 18 9V11.5C18 12.8807 16.8807 14 15.5 14C14.1193 14 13 12.8807 13 11.5V5.5C13 5.22386 13.2239 5 13.5 5C13.7761 5 14 5.22386 14 5.5V11.5C14 12.3284 14.6716 13 15.5 13C16.3284 13 17 12.3284 17 11.5V9C17 4.58172 13.4183 1 9 1C4.58172 1 1 4.58172 1 9C1 13.4183 4.58172 17 9 17C10.9091 17 12.7135 16.3297 14.1446 15.1267Z" fill="#5B5B74"/>
</svg>
