<svg width="58" height="58" viewBox="0 0 58 58" fill="none" xmlns="http://www.w3.org/2000/svg">
<path d="M11 42.5V23.5L29 9L47 23.5V46.5L44.5 49H35.5V34L34 32.5H24L23 35.5V49.5H18.5H13.5L11 46.5V42.5Z" fill="#E7E8FD"/>
<path d="M48.3334 25.9452V44.7083C48.3334 48.0451 45.6284 50.75 42.2917 50.75H35.0417C34.3744 50.75 33.8334 50.209 33.8334 49.5417V35.0417C33.8334 34.3743 33.2924 33.8333 32.625 33.8333H25.375C24.7077 33.8333 24.1667 34.3743 24.1667 35.0417V49.5417C24.1667 50.209 23.6257 50.75 22.9584 50.75H15.7084C12.3716 50.75 9.6667 48.0451 9.6667 44.7083V25.9452L9.22651 26.3078C8.71137 26.732 7.94985 26.6583 7.52562 26.1431C7.10138 25.628 7.17508 24.8665 7.69022 24.4423L28.2319 7.52558C28.6781 7.15814 29.322 7.15814 29.7682 7.52558L50.3098 24.4423C50.825 24.8665 50.8987 25.628 50.4744 26.1431C50.0502 26.6583 49.2887 26.732 48.7736 26.3078L48.3334 25.9452ZM45.9329 23.9684L29 10.0237L12.0672 23.9684C12.0778 24.0329 12.0834 24.0991 12.0834 24.1667V44.7083C12.0834 46.7104 13.7063 48.3333 15.7084 48.3333H21.75V35.0417C21.75 33.0396 23.373 31.4167 25.375 31.4167H32.625C34.6271 31.4167 36.25 33.0396 36.25 35.0417V48.3333H42.2917C44.2937 48.3333 45.9167 46.7104 45.9167 44.7083V24.1667C45.9167 24.0991 45.9222 24.0329 45.9329 23.9684Z" fill="#131CE7"/>
</svg>
