<svg width="51" height="51" viewBox="0 0 51 51" fill="none" xmlns="http://www.w3.org/2000/svg">
<path d="M9.5 13V29L5.5 39.5L7 42H44.5L45.5 39.5L41 28V11.5L38.5 9.5H16.5H12L9.5 13Z" fill="#E9EAFD"/>
<path d="M10.6249 27.625H40.3749V13.8125C40.3749 12.0521 38.9478 10.625 37.1874 10.625H13.8124C12.0519 10.625 10.6249 12.0521 10.6249 13.8125V27.625ZM42.4999 28.475L46.5047 38.0865C46.6665 38.475 46.7499 38.8917 46.7499 39.3125C46.7499 41.0729 45.3228 42.5 43.5624 42.5H7.43736C7.01652 42.5 6.59985 42.4167 6.21139 42.2548C4.5864 41.5777 3.81797 39.7115 4.49505 38.0865L8.49986 28.475V13.8125C8.49986 10.8785 10.8783 8.5 13.8124 8.5H37.1874C40.1214 8.5 42.4999 10.8785 42.4999 13.8125V28.475ZM10.2707 29.75L6.45659 38.9038C6.23089 39.4455 6.48704 40.0676 7.0287 40.2933C7.15819 40.3472 7.29708 40.375 7.43736 40.375H43.5624C44.1492 40.375 44.6249 39.8993 44.6249 39.3125C44.6249 39.1722 44.5971 39.0333 44.5431 38.9038L40.729 29.75H10.2707ZM13.8124 34C13.2256 34 12.7499 33.5243 12.7499 32.9375C12.7499 32.3507 13.2256 31.875 13.8124 31.875H15.9374C16.5242 31.875 16.9999 32.3507 16.9999 32.9375C16.9999 33.5243 16.5242 34 15.9374 34H13.8124ZM11.6874 38.25C11.1006 38.25 10.6249 37.7743 10.6249 37.1875C10.6249 36.6007 11.1006 36.125 11.6874 36.125H13.8124C14.3992 36.125 14.8749 36.6007 14.8749 37.1875C14.8749 37.7743 14.3992 38.25 13.8124 38.25H11.6874ZM18.0624 38.25C17.4756 38.25 16.9999 37.7743 16.9999 37.1875C16.9999 36.6007 17.4756 36.125 18.0624 36.125H26.5624C27.1492 36.125 27.6249 36.6007 27.6249 37.1875C27.6249 37.7743 27.1492 38.25 26.5624 38.25H18.0624ZM30.8124 38.25C30.2256 38.25 29.7499 37.7743 29.7499 37.1875C29.7499 36.6007 30.2256 36.125 30.8124 36.125H32.9374C33.5242 36.125 33.9999 36.6007 33.9999 37.1875C33.9999 37.7743 33.5242 38.25 32.9374 38.25H30.8124ZM37.1874 38.25C36.6006 38.25 36.1249 37.7743 36.1249 37.1875C36.1249 36.6007 36.6006 36.125 37.1874 36.125H39.3124C39.8992 36.125 40.3749 36.6007 40.3749 37.1875C40.3749 37.7743 39.8992 38.25 39.3124 38.25H37.1874ZM20.1874 34C19.6006 34 19.1249 33.5243 19.1249 32.9375C19.1249 32.3507 19.6006 31.875 20.1874 31.875H22.3124C22.8992 31.875 23.3749 32.3507 23.3749 32.9375C23.3749 33.5243 22.8992 34 22.3124 34H20.1874ZM26.5624 34C25.9756 34 25.4999 33.5243 25.4999 32.9375C25.4999 32.3507 25.9756 31.875 26.5624 31.875H28.6874C29.2742 31.875 29.7499 32.3507 29.7499 32.9375C29.7499 33.5243 29.2742 34 28.6874 34H26.5624ZM32.9374 34C32.3506 34 31.8749 33.5243 31.8749 32.9375C31.8749 32.3507 32.3506 31.875 32.9374 31.875H35.0624C35.6492 31.875 36.1249 32.3507 36.1249 32.9375C36.1249 33.5243 35.6492 34 35.0624 34H32.9374Z" fill="#2B44DC"/>
</svg>
