<svg width="52" height="52" viewBox="0 0 52 52" fill="none" xmlns="http://www.w3.org/2000/svg">
<circle opacity="0.9" cx="27" cy="27" r="21" fill="#E7E8FD"/>
<path d="M47.6386 28.1667H41.1255C40.5996 35.081 35.0809 40.5997 28.1666 41.1257V47.6387C38.6721 47.0939 47.0938 38.6722 47.6386 28.1667ZM47.6386 26C47.0938 15.4945 38.6721 7.0728 28.1666 6.52806V13.0411C35.0809 13.5671 40.5996 19.0858 41.1255 26H47.6386ZM6.52794 28.1667C7.07268 38.6722 15.4944 47.0939 25.9999 47.6387V41.1257C19.0856 40.5997 13.5669 35.081 13.041 28.1667H6.52794ZM6.52794 26H13.041C13.5669 19.0858 19.0856 13.5671 25.9999 13.0411V6.52806C15.4944 7.0728 7.07268 15.4945 6.52794 26ZM27.0833 49.8334C14.5188 49.8334 4.33325 39.6479 4.33325 27.0834C4.33325 14.5189 14.5188 4.33337 27.0833 4.33337C39.6477 4.33337 49.8333 14.5189 49.8333 27.0834C49.8333 39.6479 39.6477 49.8334 27.0833 49.8334ZM27.0833 39C33.6646 39 38.9999 33.6648 38.9999 27.0834C38.9999 20.502 33.6646 15.1667 27.0833 15.1667C20.5019 15.1667 15.1666 20.502 15.1666 27.0834C15.1666 33.6648 20.5019 39 27.0833 39Z" fill="#131CE7"/>
</svg>
