<svg width="14" height="18" viewBox="0 0 14 18" fill="none" xmlns="http://www.w3.org/2000/svg">
<path d="M11.6157 7.00439C11.5785 7.01318 11.5398 7.01783 11.5 7.01783C11.454 7.01783 11.4095 7.01163 11.3672 7H2.5C1.67157 7 1 7.67157 1 8.5V15.5C1 16.3284 1.67157 17 2.5 17H11.5C12.3284 17 13 16.3284 13 15.5V8.5C13 7.71049 12.39 7.06344 11.6157 7.00439ZM3 6H11V5C11 2.79086 9.20914 1 7 1C4.79086 1 3 2.79086 3 5V6ZM12 6.05001C13.1411 6.28164 14 7.29052 14 8.5V15.5C14 16.8807 12.8807 18 11.5 18H2.5C1.11929 18 0 16.8807 0 15.5V8.5C0 7.29052 0.85888 6.28164 2 6.05001V5C2 2.23858 4.23858 0 7 0C9.76142 0 12 2.23858 12 5V6.05001ZM6 11V11.382C6 12.0396 6.15311 12.6882 6.44721 13.2764L6.72361 13.8292C6.77595 13.9339 6.88295 14 7 14C7.11705 14 7.22405 13.9339 7.27639 13.8292L7.55279 13.2764C7.84689 12.6882 8 12.0396 8 11.382V11C8 10.4477 7.55228 10 7 10C6.44772 10 6 10.4477 6 11ZM5 11C5 9.89543 5.89543 9 7 9C8.10457 9 9 9.89543 9 11V11.382C9 12.1948 8.81074 12.9965 8.44721 13.7236L8.17082 14.2764C7.94908 14.7199 7.49582 15 7 15C6.50418 15 6.05092 14.7199 5.82918 14.2764L5.55279 13.7236C5.18926 12.9965 5 12.1948 5 11.382V11Z" fill="#5B5B74"/>
</svg>
