<svg width="54" height="54" viewBox="0 0 54 54" fill="none" xmlns="http://www.w3.org/2000/svg">
<path d="M9 34.5H45.5L46.5 34L48 32.5V15V12L45.5 10H13H8.5L6 12.5C5.66667 14.8333 5 21 5 27C5 33 7.66667 34.5 9 34.5Z" fill="#E7E8FD"/>
<path d="M13.5 11.25V12.375C13.5 15.4816 10.9816 18 7.875 18H6.75V27H7.96811C11.0747 27 13.5931 29.5184 13.5931 32.625V33.75H40.5V32.625C40.5 29.5184 43.0184 27 46.125 27H47.25V18H46.125C43.0184 18 40.5 15.4816 40.5 12.375V11.25H13.5ZM11.25 11.25H10.125C8.26104 11.25 6.75 12.761 6.75 14.625V15.75H7.875C9.73896 15.75 11.25 14.239 11.25 12.375V11.25ZM11.3431 33.75V32.625C11.3431 30.761 9.83207 29.25 7.96811 29.25H6.75V30.375C6.75 32.239 8.26104 33.75 10.125 33.75H11.3431ZM12.8816 36C12.7536 36.0506 12.6141 36.0784 12.4681 36.0784C12.3221 36.0784 12.1826 36.0506 12.0546 36H10.125C7.0184 36 4.5 33.4816 4.5 30.375V14.625C4.5 11.5184 7.0184 9 10.125 9H43.875C46.9816 9 49.5 11.5184 49.5 14.625V30.375C49.5 33.4816 46.9816 36 43.875 36H12.8816ZM42.75 33.75H43.875C45.739 33.75 47.25 32.239 47.25 30.375V29.25H46.125C44.261 29.25 42.75 30.761 42.75 32.625V33.75ZM42.75 11.25V12.375C42.75 14.239 44.261 15.75 46.125 15.75H47.25V14.625C47.25 12.761 45.739 11.25 43.875 11.25H42.75ZM27 31.5C22.0294 31.5 18 27.4706 18 22.5C18 17.5294 22.0294 13.5 27 13.5C31.9706 13.5 36 17.5294 36 22.5C36 27.4706 31.9706 31.5 27 31.5ZM27 29.25C30.7279 29.25 33.75 26.2279 33.75 22.5C33.75 18.7721 30.7279 15.75 27 15.75C23.2721 15.75 20.25 18.7721 20.25 22.5C20.25 26.2279 23.2721 29.25 27 29.25ZM5.625 40.5C5.00368 40.5 4.5 39.9963 4.5 39.375C4.5 38.7537 5.00368 38.25 5.625 38.25H48.375C48.9963 38.25 49.5 38.7537 49.5 39.375C49.5 39.9963 48.9963 40.5 48.375 40.5H5.625ZM5.625 45C5.00368 45 4.5 44.4963 4.5 43.875C4.5 43.2537 5.00368 42.75 5.625 42.75H48.375C48.9963 42.75 49.5 43.2537 49.5 43.875C49.5 44.4963 48.9963 45 48.375 45H5.625Z" fill="#131CE7"/>
</svg>
