<svg width="46" height="46" viewBox="0 0 46 46" fill="none" xmlns="http://www.w3.org/2000/svg">
<path d="M4.49996 11H10.5L9.99996 34.5L11 38.5L13.5 41H23H39.5C40.1667 40.5 41.5 39.1 41.5 37.5C41.5 35.9 40.8333 35.5 40.5 35.5L35 34.5V6L32 4.5H9.99996C3.99996 4.5 3.83329 8.83333 4.49996 11Z" fill="#E9EAFD"/>
<path d="M41.2083 34.5C41.7373 34.5 42.1666 34.9294 42.1666 35.4584V37.375C42.1666 40.022 40.0218 42.1667 37.3749 42.1667H14.3749C14.2043 42.1667 14.0357 42.1571 13.8689 42.1399C13.7213 42.1571 13.5699 42.1667 13.4166 42.1667C13.1463 42.1667 12.9029 42.0555 12.7304 41.8773C10.8943 41.2065 9.58325 39.4431 9.58325 37.375V11.5H4.79159C4.26259 11.5 3.83325 11.0707 3.83325 10.5417V7.66671C3.83325 5.55071 5.55059 3.83337 7.66659 3.83337H31.6901C34.337 3.83337 36.4818 5.97812 36.4818 8.62504V34.5H41.2083ZM40.2499 37.375V36.4167H17.2499V38.3334C17.2499 39.031 17.0621 39.6865 16.7363 40.25H37.3749C38.9638 40.25 40.2499 38.962 40.2499 37.375ZM15.3333 35.4584C15.3333 34.9294 15.7626 34.5 16.2916 34.5H34.5651V8.62504C34.5651 7.03612 33.279 5.75004 31.6901 5.75004H10.969C11.2987 6.31546 11.4999 6.96521 11.4999 7.66671V37.375C11.4999 38.7819 12.51 39.9549 13.8478 40.2021C14.6969 40.0066 15.3333 39.2438 15.3333 38.3334V35.4584ZM9.58325 9.58337V7.66671C9.58325 6.60871 8.72459 5.75004 7.66659 5.75004C6.60859 5.75004 5.74992 6.60871 5.74992 7.66671V9.58337H9.58325ZM18.2083 15.3334C17.6793 15.3334 17.2499 15.7627 17.2499 16.2917V18.2084C17.2499 18.7374 17.6793 19.1667 18.2083 19.1667H27.7916C29.3805 19.1667 30.6666 20.4528 30.6666 22.0417V23.9584C30.6666 25.5473 29.3805 26.8334 27.7916 26.8334H26.8333V27.7917C26.8333 28.3207 26.4039 28.75 25.8749 28.75C25.3459 28.75 24.9166 28.3207 24.9166 27.7917V26.8334H21.0833V27.7917C21.0833 28.3207 20.6539 28.75 20.1249 28.75C19.5959 28.75 19.1666 28.3207 19.1666 27.7917V26.8334H18.2083C16.6193 26.8334 15.3333 25.5473 15.3333 23.9584C15.3333 23.4294 15.7626 23 16.2916 23C16.8206 23 17.2499 23.4294 17.2499 23.9584C17.2499 24.4874 17.6793 24.9167 18.2083 24.9167H27.7916C28.3206 24.9167 28.7499 24.4874 28.7499 23.9584V22.0417C28.7499 21.5127 28.3206 21.0834 27.7916 21.0834H18.2083C16.6193 21.0834 15.3333 19.7973 15.3333 18.2084V16.2917C15.3333 14.7028 16.6193 13.4167 18.2083 13.4167H19.1666V12.4584C19.1666 11.9294 19.5959 11.5 20.1249 11.5C20.6539 11.5 21.0833 11.9294 21.0833 12.4584V13.4167H24.9166V12.4584C24.9166 11.9294 25.3459 11.5 25.8749 11.5C26.4039 11.5 26.8333 11.9294 26.8333 12.4584V13.4167H27.7916C29.3805 13.4167 30.6666 14.7028 30.6666 16.2917C30.6666 16.8207 30.2373 17.25 29.7083 17.25C29.1793 17.25 28.7499 16.8207 28.7499 16.2917C28.7499 15.7627 28.3206 15.3334 27.7916 15.3334H18.2083Z" fill="#131CE7"/>
</svg>
