<svg width="24" height="23" viewBox="0 0 24 23" fill="none" xmlns="http://www.w3.org/2000/svg">
<path d="M2.27614 18.9412L5.13807 21.8452C5.39842 22.1094 5.39842 22.5377 5.13807 22.8019C4.87772 23.066 4.45561 23.066 4.19526 22.8019L0.195262 18.743C-0.0650873 18.4789 -0.0650873 18.0505 0.195262 17.7864L4.19526 13.7275C4.45561 13.4634 4.87772 13.4634 5.13807 13.7275C5.39842 13.9917 5.39842 14.42 5.13807 14.6842L2.27614 17.5882H20.6667C21.7712 17.5882 22.6667 16.6796 22.6667 15.5588V11.5C22.6667 11.1264 22.9651 10.8235 23.3333 10.8235C23.7015 10.8235 24 11.1264 24 11.5V15.5588C24 17.4268 22.5076 18.9412 20.6667 18.9412H2.27614ZM21.7239 4.05882L18.8619 1.15481C18.6016 0.890629 18.6016 0.462312 18.8619 0.198134C19.1223 -0.0660445 19.5444 -0.0660445 19.8047 0.198134L23.8047 4.25696C24.0651 4.52114 24.0651 4.94945 23.8047 5.21363L19.8047 9.27245C19.5444 9.53663 19.1223 9.53663 18.8619 9.27245C18.6016 9.00828 18.6016 8.57996 18.8619 8.31578L21.7239 5.41176H3.33333C2.22876 5.41176 1.33333 6.32036 1.33333 7.44118V11.5C1.33333 11.8736 1.03486 12.1765 0.666667 12.1765C0.298477 12.1765 0 11.8736 0 11.5V7.44118C0 5.57315 1.49238 4.05882 3.33333 4.05882H21.7239Z" fill="white"/>
</svg>
