<svg width="53" height="53" viewBox="0 0 53 53" fill="none" xmlns="http://www.w3.org/2000/svg">
<path d="M26.5 53C11.8645 53 0 41.1355 0 26.5C0 11.8645 11.8645 0 26.5 0C41.1355 0 53 11.8645 53 26.5C53 41.1355 41.1355 53 26.5 53ZM26.5 50.35C39.672 50.35 50.35 39.672 50.35 26.5C50.35 13.328 39.672 2.65 26.5 2.65C13.328 2.65 2.65 13.328 2.65 26.5C2.65 39.672 13.328 50.35 26.5 50.35ZM34.45 30.475C34.45 29.7432 35.0432 29.15 35.775 29.15C36.5068 29.15 37.1 29.7432 37.1 30.475C37.1 35.5974 32.9474 39.75 27.825 39.75H25.175C20.0526 39.75 15.9 35.5974 15.9 30.475C15.9 29.7432 16.4932 29.15 17.225 29.15C17.9568 29.15 18.55 29.7432 18.55 30.475C18.55 34.1339 21.5161 37.1 25.175 37.1H27.825C31.4839 37.1 34.45 34.1339 34.45 30.475ZM18.55 23.85C17.0864 23.85 15.9 22.6636 15.9 21.2C15.9 19.7364 17.0864 18.55 18.55 18.55C20.0136 18.55 21.2 19.7364 21.2 21.2C21.2 22.6636 20.0136 23.85 18.55 23.85ZM34.45 23.85C32.9864 23.85 31.8 22.6636 31.8 21.2C31.8 19.7364 32.9864 18.55 34.45 18.55C35.9136 18.55 37.1 19.7364 37.1 21.2C37.1 22.6636 35.9136 23.85 34.45 23.85Z" fill="#27B67A"/>
</svg>
