<svg xmlns="http://www.w3.org/2000/svg" width="91" height="48" fill="none"><path fill="#1B1A3D" d="M12.12 20h-1.03V5.85h1.03V20zM29.225 5.85V20h-.48a.54.54 0 0 1-.22-.04.605.605 0 0 1-.16-.16l-9.19-12.28c.02.2.03.39.03.57V20h-.9V5.85h.51c.093 0 .163.013.21.04.053.02.11.07.17.15l9.17 12.25c-.02-.2-.03-.39-.03-.57V5.85h.89zm13.047 1.72c-.06.113-.146.17-.26.17-.086 0-.2-.06-.34-.18a3.559 3.559 0 0 0-.55-.41 4.175 4.175 0 0 0-.88-.42c-.346-.127-.776-.19-1.29-.19a3.88 3.88 0 0 0-1.36.22 2.891 2.891 0 0 0-.98.6 2.65 2.65 0 0 0-.6.88c-.133.333-.2.683-.2 1.05 0 .48.1.877.3 1.19.207.313.477.58.81.8.334.22.71.407 1.13.56.427.147.864.293 1.31.44.447.147.88.31 1.3.49.427.173.807.393 1.14.66.334.267.6.597.8.99.207.387.31.87.31 1.45 0 .593-.103 1.153-.31 1.68-.2.52-.493.973-.88 1.36-.386.387-.86.693-1.42.92-.56.22-1.2.33-1.92.33-.933 0-1.736-.163-2.41-.49a5.746 5.746 0 0 1-1.77-1.36l.28-.44c.08-.1.174-.15.28-.15.06 0 .137.04.23.12.094.08.207.18.34.3.134.113.294.24.48.38.187.133.404.26.65.38a4.508 4.508 0 0 0 1.94.41c.56 0 1.06-.083 1.5-.25.44-.173.81-.407 1.11-.7.307-.293.54-.64.7-1.04.16-.407.24-.84.24-1.3 0-.5-.103-.91-.31-1.23a2.508 2.508 0 0 0-.8-.81 5.025 5.025 0 0 0-1.14-.55c-.42-.147-.853-.29-1.3-.43-.446-.14-.883-.297-1.31-.47a4.612 4.612 0 0 1-1.13-.66 3.171 3.171 0 0 1-.81-1.01c-.2-.407-.3-.913-.3-1.52 0-.473.09-.93.27-1.37.18-.44.444-.827.79-1.16.347-.34.774-.61 1.28-.81.514-.207 1.097-.31 1.75-.31.734 0 1.39.117 1.97.35a4.72 4.72 0 0 1 1.6 1.07l-.24.46zm11.014 11.7c.68 0 1.286-.117 1.82-.35.54-.24.996-.57 1.37-.99.373-.42.656-.913.85-1.48.2-.573.3-1.19.3-1.85V5.85h1.02v8.75c0 .78-.124 1.51-.37 2.19a5.245 5.245 0 0 1-1.07 1.77c-.46.5-1.024.893-1.69 1.18-.66.287-1.404.43-2.23.43-.827 0-1.574-.143-2.24-.43a5.012 5.012 0 0 1-1.69-1.18 5.332 5.332 0 0 1-1.06-1.77 6.375 6.375 0 0 1-.37-2.19V5.85h1.03v8.74c0 .66.096 1.277.29 1.85.2.567.483 1.06.85 1.48.373.42.826.75 1.36.99.54.24 1.15.36 1.83.36zm14.83-6.43c.627 0 1.188-.073 1.68-.22.5-.153.92-.37 1.26-.65.347-.28.61-.617.79-1.01.18-.393.27-.837.27-1.33 0-1.007-.33-1.753-.99-2.24-.653-.487-1.61-.73-2.87-.73h-2.59v6.18h2.45zm6.28 7.16h-.88a.754.754 0 0 1-.29-.05.626.626 0 0 1-.21-.21L68.477 14a1.19 1.19 0 0 0-.17-.19.514.514 0 0 0-.19-.12.796.796 0 0 0-.25-.07 2.549 2.549 0 0 0-.35-.02h-1.85V20h-1.03V5.85h3.62c1.627 0 2.844.317 3.65.95.814.627 1.22 1.55 1.22 2.77 0 .54-.093 1.033-.28 1.48a3.49 3.49 0 0 1-.81 1.18c-.346.333-.77.607-1.27.82a5.953 5.953 0 0 1-1.67.43c.16.1.304.233.43.4l4.87 6.12zm12.89-.85l-.02.85h-8.48V5.85h8.48v.85h-7.45v5.72h6.2v.83h-6.2v5.9h7.47zM17.96 31.57c-.06.113-.147.17-.26.17-.087 0-.2-.06-.34-.18a3.559 3.559 0 0 0-.55-.41 4.178 4.178 0 0 0-.88-.42c-.347-.127-.777-.19-1.29-.19s-.967.073-1.36.22a2.892 2.892 0 0 0-.98.6 2.65 2.65 0 0 0-.6.88c-.133.333-.2.683-.2 1.05 0 .48.1.877.3 1.19.207.313.477.58.81.8.333.22.71.407 1.13.56.427.147.863.293 1.31.44.447.147.88.31 1.3.49.427.173.807.393 1.14.66.333.267.6.597.8.99.207.387.31.87.31 1.45 0 .593-.103 1.153-.31 1.68-.2.52-.493.973-.88 1.36-.387.387-.86.693-1.42.92-.56.22-1.2.33-1.92.33-.933 0-1.737-.163-2.41-.49a5.746 5.746 0 0 1-1.77-1.36l.28-.44c.08-.1.173-.15.28-.15.06 0 .137.04.23.12.093.08.207.18.34.3.133.113.293.24.48.38.187.133.403.26.65.38a4.508 4.508 0 0 0 1.94.41c.56 0 1.06-.083 1.5-.25.44-.173.81-.407 1.11-.7.307-.293.54-.64.7-1.04.16-.407.24-.84.24-1.3 0-.5-.103-.91-.31-1.23a2.508 2.508 0 0 0-.8-.81 5.025 5.025 0 0 0-1.14-.55c-.42-.147-.853-.29-1.3-.43-.447-.14-.883-.297-1.31-.47a4.612 4.612 0 0 1-1.13-.66 3.171 3.171 0 0 1-.81-1.01c-.2-.407-.3-.913-.3-1.52 0-.473.09-.93.27-1.37.18-.44.443-.827.79-1.16.347-.34.773-.61 1.28-.81.513-.207 1.097-.31 1.75-.31.733 0 1.39.117 1.97.35a4.72 4.72 0 0 1 1.6 1.07l-.24.46zm19.813-1.72V44h-.89V31.94c0-.173.01-.357.03-.55l-5.57 9.89c-.093.173-.227.26-.4.26h-.16c-.173 0-.306-.087-.4-.26l-5.72-9.91c.02.2.03.39.03.57V44h-.9V29.85h.71c.093 0 .167.01.22.03.053.02.107.073.16.16l5.71 9.84c.1.187.187.387.26.6.04-.107.083-.21.13-.31.047-.107.097-.207.15-.3l5.55-9.83c.053-.087.107-.14.16-.16a.74.74 0 0 1 .23-.03h.7zm14.684 13.3l-.02.85h-8.48V29.85h8.48v.85h-7.45v5.72h6.2v.83h-6.2v5.9h7.47z"/><path fill="#2B44DC" d="M0 6h2v39H0z"/></svg>