<svg width="58" height="58" viewBox="0 0 58 58" fill="none" xmlns="http://www.w3.org/2000/svg">
<path d="M11 14L8.5 17.5V18L8 30.5V41L10 42.5L12.5 44.5H41.5H47L49 41L50 20L48 14.5L36 13.5L34.5 12V9L25.5 8.5L23 9L22.5 12.5L11 14Z" fill="#EDEDFD"/>
<path d="M38.6667 14.5H19.3333V43.5232H38.6667V14.5ZM41.0833 14.5V43.5232H44.7083C46.7104 43.5232 48.3333 41.9003 48.3333 39.8982V18.125C48.3333 16.123 46.7104 14.5 44.7083 14.5H41.0833ZM16.9167 14.5H13.2917C11.2896 14.5 9.66667 16.123 9.66667 18.125V39.8982C9.66667 41.9003 11.2896 43.5232 13.2917 43.5232H16.9167V14.5ZM21.75 12.0833V10.875C21.75 8.87297 23.373 7.25 25.375 7.25H32.625C34.627 7.25 36.25 8.87297 36.25 10.875V12.0833H44.7083C48.0451 12.0833 50.75 14.7883 50.75 18.125V39.8982C50.75 43.2349 48.0451 45.9399 44.7083 45.9399H13.2917C9.95495 45.9399 7.25 43.2349 7.25 39.8982V18.125C7.25 14.7883 9.95495 12.0833 13.2917 12.0833H21.75ZM33.8333 12.0833V10.875C33.8333 10.2077 33.2923 9.66667 32.625 9.66667H25.375C24.7077 9.66667 24.1667 10.2077 24.1667 10.875V12.0833H33.8333Z" fill="#131CE7"/>
</svg>
