<svg width="57" height="57" viewBox="0 0 57 57" fill="none" xmlns="http://www.w3.org/2000/svg">
<path d="M25.5 20H14H12.5L10.5 22C10.1667 22.1667 9.4 22.8 9 24C8.6 25.2 8.5 26.8333 8.5 27.5L10.5 30L13 32L12.5 36L15.5 45.5L18.5 47L23 42.5V41.5L21.5 40.5V39L22.5 37.5L22 36.5L21 35L20 33.5L21 32L22.5 31.5L27.5 32.5L34 34.5L41 37.5L43.5 38V36L45 31.5L48.5 29.5L49 25.5C48.3333 24.3333 47 21.8 47 21C47 20.2 45 20 44 20L43.5 13.5L36 17.5L25.5 20Z" fill="#EDEDFD"/>
<path d="M11.8791 32.8461C9.1096 31.8692 7.125 29.2289 7.125 26.1251C7.125 22.1901 10.315 19.0001 14.25 19.0001H24.9375C29.427 19.0001 35.5779 16.6935 43.3265 12.0444C44.118 11.5695 45.125 12.1396 45.125 13.0626V19.1189C47.8352 19.669 49.875 22.0651 49.875 24.9376V27.3126C49.875 30.1851 47.8352 32.5812 45.125 33.1314V39.1876C45.125 40.1107 44.118 40.6808 43.3265 40.2059C35.5779 35.5567 29.427 33.2501 24.9375 33.2501H21.8978C21.536 33.6919 21.375 34.0856 21.375 34.4376C21.375 34.2767 21.4374 34.3286 21.9061 34.563C23.2186 35.2193 23.75 35.6621 23.75 36.8126C23.75 37.6483 23.4749 38.1481 22.8962 38.7682L22.8369 38.8316C22.5951 39.0907 22.5637 39.146 22.5625 39.3453C22.5631 39.2482 22.5783 39.2539 22.9967 39.4183C23.0423 39.4362 23.0423 39.4362 23.0896 39.4547C24.3525 39.9498 24.9375 40.3894 24.9375 41.5626C24.9375 42.7041 24.3996 43.78 23.4022 44.7773C19.7796 48.3999 16.5521 48.9378 14.4494 45.7838C12.7731 43.2694 11.9433 38.9762 11.8791 32.8461ZM14.2599 33.2501C14.3528 38.7208 15.0996 42.4775 16.4256 44.4664C17.4896 46.0624 19.0121 45.8087 21.7228 43.0979C22.2777 42.5431 22.5346 42.0586 22.5603 41.6336C22.534 41.7845 22.4631 41.7601 22.2227 41.6658C22.1765 41.6477 22.1765 41.6477 22.1283 41.6288C20.8342 41.1204 20.1875 40.6046 20.1875 39.3573C20.1875 38.4285 20.4828 37.8731 21.1006 37.2111L21.1599 37.1477C21.3372 36.9577 21.3686 36.9195 21.3739 36.8505C21.3611 36.9632 21.2719 36.9012 20.8439 36.6873C19.5314 36.031 19 35.5882 19 34.4376C19 34.0334 19.0675 33.6374 19.1989 33.2501H14.2599ZM45.125 21.5778V30.6724C46.5087 30.1834 47.5 28.8638 47.5 27.3126V24.9376C47.5 23.3865 46.5087 22.0669 45.125 21.5778ZM26.125 21.3314V30.9188C30.5689 31.2384 36.0977 33.3112 42.75 37.1152V15.135C36.0977 18.9391 30.5689 21.0118 26.125 21.3314ZM23.75 30.8751V21.3751H14.25C11.6266 21.3751 9.5 23.5018 9.5 26.1251C9.5 28.7485 11.6266 30.8751 14.25 30.8751H23.75Z" fill="#131CE7"/>
</svg>
