<svg width="43" height="36" viewBox="0 0 46 46" fill="none" xmlns="http://www.w3.org/2000/svg">
<path d="M11 3L8.5 8L8 9.5L6 12H2.5L1 13L2 15.5L3 17L2.5 31.5L4.5 34.5L10.5 35L12.5 33.5L13 28.5L13.5 28H29.5V31L30.5 34L32.5 35H36.5L39.5 33.5V17.5L40 16L42 15L41.5 13L40 12H36.5L34.5 7L32 3L29.5 1.5H22.5H13.5L11 3Z" fill="#E9EAFD"/>
<path fill-rule="evenodd" clip-rule="evenodd" d="M38 17H5C4.44772 17 4 17.4477 4 18V27H39V18C39 17.4477 38.5523 17 38 17ZM5 15C3.34315 15 2 16.3431 2 18V29H41V18C41 16.3431 39.6569 15 38 15H5Z" fill="#2B44DC"/>
<path fill-rule="evenodd" clip-rule="evenodd" d="M39 29H31V32C31 33.1046 31.8954 34 33 34H37C38.1046 34 39 33.1046 39 32V29ZM29 27V32C29 34.2091 30.7909 36 33 36H37C39.2091 36 41 34.2091 41 32V27H29Z" fill="#2B44DC"/>
<path fill-rule="evenodd" clip-rule="evenodd" d="M12 29H4V32C4 33.1046 4.89543 34 6 34H10C11.1046 34 12 33.1046 12 32V29ZM2 27V32C2 34.2091 3.79086 36 6 36H10C12.2091 36 14 34.2091 14 32V27H2Z" fill="#2B44DC"/>
<path fill-rule="evenodd" clip-rule="evenodd" d="M15.4387 2C13.4459 2 11.6433 3.18342 10.8509 5.01196L5.91714 16.3976L4.08203 15.6024L9.01581 4.21675C10.1251 1.65678 12.6487 0 15.4387 0H20.9996V2H15.4387Z" fill="#2B44DC"/>
<path fill-rule="evenodd" clip-rule="evenodd" d="M27.5613 2C29.5541 2 31.3567 3.18342 32.1491 5.01196L37.0829 16.3976L38.918 15.6024L33.9842 4.21675C32.8749 1.65678 30.3513 0 27.5613 0H20.5004V2H27.5613Z" fill="#2B44DC"/>
<path fill-rule="evenodd" clip-rule="evenodd" d="M14.5 23H8V21H14.5V23Z" fill="#2B44DC"/>
<path fill-rule="evenodd" clip-rule="evenodd" d="M34.5 23H28V21H34.5V23Z" fill="#2B44DC"/>
<path fill-rule="evenodd" clip-rule="evenodd" d="M40 13H36.5V11H40C41.6569 11 43 12.3431 43 14C43 15.6569 41.6569 17 40 17H37.5V15H40C40.5523 15 41 14.5523 41 14C41 13.4477 40.5523 13 40 13Z" fill="#2B44DC"/>
<path fill-rule="evenodd" clip-rule="evenodd" d="M40 13H36.5V11H40C41.6569 11 43 12.3431 43 14C43 15.6569 41.6569 17 40 17H37.5V15H40C40.5523 15 41 14.5523 41 14C41 13.4477 40.5523 13 40 13Z" fill="#2B44DC"/>
<path fill-rule="evenodd" clip-rule="evenodd" d="M3 13H6.5V11H3C1.34315 11 0 12.3431 0 14C0 15.6569 1.34315 17 3 17H5V15H3C2.44772 15 2 14.5523 2 14C2 13.4477 2.44772 13 3 13Z" fill="#2B44DC"/>
<path fill-rule="evenodd" clip-rule="evenodd" d="M3 13H6.5V11H3C1.34315 11 0 12.3431 0 14C0 15.6569 1.34315 17 3 17H5V15H3C2.44772 15 2 14.5523 2 14C2 13.4477 2.44772 13 3 13Z" fill="#2B44DC"/>
</svg>
