<svg width="44" height="29" viewBox="0 0 44 29" fill="none" xmlns="http://www.w3.org/2000/svg">
<path d="M39.3745 2.41667H32.625C31.9577 2.41667 31.4167 1.87568 31.4167 1.20833C31.4167 0.540989 31.9577 0 32.625 0H42.2917C42.959 0 43.5 0.540989 43.5 1.20833V10.875C43.5 11.5423 42.959 12.0833 42.2917 12.0833C41.6243 12.0833 41.0833 11.5423 41.0833 10.875V4.12551L28.6461 16.5628C28.1742 17.0346 27.4091 17.0346 26.9372 16.5628L20.5417 10.1672L11.7294 18.9794C11.2575 19.4513 10.4925 19.4513 10.0206 18.9794C9.5487 18.5075 9.5487 17.7425 10.0206 17.2706L19.6872 7.60391C20.1591 7.13203 20.9242 7.13203 21.3961 7.60391L27.7917 13.9995L39.3745 2.41667ZM42.2917 26.5833C42.959 26.5833 43.5 27.1243 43.5 27.7917C43.5 28.459 42.959 29 42.2917 29H6.04167C2.70495 29 0 26.2951 0 22.9583V1.20833C0 0.540989 0.540989 0 1.20833 0C1.87568 0 2.41667 0.540989 2.41667 1.20833V22.9583C2.41667 24.9604 4.03963 26.5833 6.04167 26.5833H42.2917Z" fill="#131CE7"/>
</svg>
