<svg width="44" height="44" viewBox="0 0 44 44" fill="none" xmlns="http://www.w3.org/2000/svg">
<circle cx="22.0001" cy="22.0001" r="17.2174" fill="#EDEDFD"/>
<path d="M22.0001 40.3332C11.8749 40.3332 3.66675 32.1251 3.66675 21.9998C3.66675 11.8746 11.8749 3.6665 22.0001 3.6665C32.1253 3.6665 40.3334 11.8746 40.3334 21.9998C40.3334 32.1251 32.1253 40.3332 22.0001 40.3332ZM22.0001 38.4998C31.1128 38.4998 38.5001 31.1125 38.5001 21.9998C38.5001 12.8871 31.1128 5.49984 22.0001 5.49984C12.8874 5.49984 5.50008 12.8871 5.50008 21.9998C5.50008 31.1125 12.8874 38.4998 22.0001 38.4998ZM27.7686 16.7683C28.1265 16.4103 28.7069 16.4103 29.0649 16.7683C29.4229 17.1263 29.4229 17.7067 29.0649 18.0647L19.8983 27.2314C19.5403 27.5893 18.9599 27.5893 18.6019 27.2314L14.9352 23.5647C14.5773 23.2067 14.5773 22.6263 14.9352 22.2683C15.2932 21.9103 15.8736 21.9103 16.2316 22.2683L19.2501 25.2868L27.7686 16.7683Z" fill="#131CE7"/>
</svg>
