<svg width="50" height="50" viewBox="0 0 50 50" fill="none" xmlns="http://www.w3.org/2000/svg">
<path d="M14.7728 8.52269L12.5001 10.7954L11.3637 15.3409L11.9319 18.1818L8.52284 22.1591C8.14405 22.9166 7.38647 25.3409 7.38647 28.9772C7.38647 33.5227 8.52284 34.0909 9.6592 35.2272C10.5683 36.1363 11.9319 36.3636 12.5001 36.3636L13.6365 36.9318V38.6363L14.7728 40.9091L17.6137 44.8863L22.1592 46.5909H25.5683L30.1137 46.0227L32.9547 44.3181L35.2274 42.0454C35.6819 41.5909 36.1744 38.4469 36.3637 36.9318L38.6365 36.3636L41.4774 34.0909L42.6137 30.1136V26.1363L42.0456 23.2954L39.7728 21.0227L38.6365 18.1818V14.2045L37.5001 10.7954L32.9547 6.81815L28.9774 5.1136L27.841 5.68178V3.40906H27.2728H21.591V5.68178H21.0228H18.7501L14.7728 8.52269Z" fill="#E9EAFD"/>
<path d="M12.5 18.7705V18.8239C12.8402 18.7752 13.188 18.75 13.5417 18.75H36.4583C36.827 18.75 37.1893 18.7774 37.5433 18.8302V18.7859L36.8973 17.9213C36.3074 17.1317 35.3795 16.6667 34.3939 16.6667H15.6352C14.6473 16.6667 13.7175 17.1338 13.1279 17.9265L12.5 18.7705ZM12.5 15.6326C13.393 14.9596 14.4907 14.5834 15.6352 14.5834H20.8333V6.27986C16.1459 6.79804 12.5 10.7721 12.5 15.5976V15.6326ZM22.9167 14.5834H27.0833V4.16671H22.9167V14.5834ZM29.1667 14.5834H34.3939C35.5444 14.5834 36.6477 14.9635 37.5433 15.6434C37.5307 10.8051 33.87 6.82448 29.1667 6.30699V14.5834ZM42.3129 21.6945C43.2158 22.9083 43.75 24.4126 43.75 26.0417V30.2084C43.75 33.8959 41.0127 36.9441 37.4592 37.4319C36.9651 43.3045 32.042 47.9167 26.0417 47.9167H23.9583C17.958 47.9167 13.0349 43.3045 12.5408 37.4319C8.98728 36.9441 6.25 33.8959 6.25 30.2084V26.0417C6.25 24.1624 6.96097 22.4491 8.1286 21.1562L10.4167 18.0805V15.5976C10.4167 9.62052 14.9932 4.71231 20.8333 4.18603V3.12504C20.8333 2.54974 21.2997 2.08337 21.875 2.08337H28.125C28.7003 2.08337 29.1667 2.54974 29.1667 3.12504V4.21324C35.0307 4.73966 39.6267 9.66729 39.6267 15.6684V18.0936L42.2661 21.6263C42.2827 21.6486 42.2983 21.6713 42.3129 21.6945ZM9.06279 23.3819C8.59945 24.1604 8.33333 25.07 8.33333 26.0417V30.2084C8.33333 33.0849 10.6652 35.4167 13.5417 35.4167H15.3417C17.5842 35.4167 19.5914 34.0257 20.3788 31.9259L21.2098 29.71C21.8023 28.1301 23.3126 27.0834 25 27.0834C26.6874 27.0834 28.1977 28.1301 28.7902 29.71L29.6212 31.9259C30.4086 34.0257 32.4158 35.4167 34.6583 35.4167H36.4583C39.3348 35.4167 41.6667 33.0849 41.6667 30.2084V26.0417C41.6667 23.1652 39.3348 20.8334 36.4583 20.8334H13.5417C12.0399 20.8334 10.6866 21.469 9.73609 22.4858L9.13065 23.2996C9.10919 23.3285 9.08653 23.3559 9.06279 23.3819ZM35.3594 37.5H34.6583C32.6683 37.5 30.8117 36.7103 29.4463 35.3787C29.3573 35.4035 29.2635 35.4167 29.1667 35.4167H20.8333C20.7365 35.4167 20.6427 35.4035 20.5537 35.3787C19.1883 36.7103 17.3317 37.5 15.3417 37.5H14.6406C15.1587 42.1875 19.1328 45.8334 23.9583 45.8334H26.0417C30.8672 45.8334 34.8413 42.1875 35.3594 37.5ZM27.9626 33.3334C27.855 33.1146 27.7574 32.8891 27.6705 32.6575L26.8395 30.4415C26.552 29.6747 25.8189 29.1667 25 29.1667C24.1811 29.1667 23.448 29.6747 23.1605 30.4415L22.3295 32.6575C22.2426 32.8891 22.145 33.1146 22.0374 33.3334H27.9626Z" fill="#131CE7"/>
</svg>
