<svg width="8" height="16" viewBox="0 0 8 16" fill="none" xmlns="http://www.w3.org/2000/svg">
<path opacity="0.7" d="M3.34338 14.096C2.69804 14.0373 2.10871 13.88 1.57538 13.624C1.04738 13.3627 0.591375 13.032 0.207375 12.632L0.631375 11.976C0.668708 11.9173 0.722042 11.8693 0.791375 11.832C0.860708 11.7947 0.932708 11.776 1.00738 11.776C1.10871 11.776 1.22338 11.8267 1.35138 11.928C1.47938 12.0293 1.63671 12.1467 1.82338 12.28C2.01004 12.408 2.23138 12.5333 2.48738 12.656C2.74871 12.7787 3.06071 12.8613 3.42338 12.904L3.71938 8.656C3.34604 8.544 2.97804 8.41867 2.61538 8.28C2.25804 8.136 1.93538 7.952 1.64738 7.728C1.36471 7.49867 1.13538 7.21333 0.959375 6.872C0.788708 6.52533 0.703375 6.09333 0.703375 5.576C0.703375 5.18667 0.778042 4.808 0.927375 4.44C1.08204 4.06667 1.30338 3.736 1.59138 3.448C1.88471 3.16 2.24471 2.92533 2.67138 2.744C3.09804 2.55733 3.58871 2.45333 4.14338 2.432L4.22338 1.28C4.23404 1.17867 4.27404 1.088 4.34338 1.008C4.41271 0.927999 4.50604 0.888 4.62338 0.888H5.15138L5.03938 2.472C5.59938 2.54133 6.08204 2.68533 6.48738 2.904C6.89271 3.12267 7.25538 3.38667 7.57538 3.696L7.23138 4.224C7.12471 4.384 7.00204 4.464 6.86338 4.464C6.78871 4.464 6.69538 4.432 6.58338 4.368C6.47671 4.29867 6.34604 4.22133 6.19138 4.136C6.03671 4.04533 5.85804 3.95733 5.65538 3.872C5.45271 3.78133 5.22071 3.71733 4.95938 3.68L4.69538 7.552C5.07938 7.66933 5.45804 7.79733 5.83138 7.936C6.20471 8.07467 6.54071 8.25333 6.83938 8.472C7.13804 8.69067 7.37804 8.96533 7.55938 9.296C7.74604 9.62133 7.83938 10.0293 7.83938 10.52C7.83938 11 7.75938 11.4507 7.59938 11.872C7.43938 12.2933 7.20471 12.664 6.89538 12.984C6.59138 13.304 6.21538 13.5653 5.76738 13.768C5.32471 13.9653 4.81804 14.08 4.24738 14.112L4.15138 15.52C4.14071 15.6213 4.09804 15.7093 4.02338 15.784C3.95404 15.864 3.86338 15.904 3.75138 15.904H3.22338L3.34338 14.096ZM6.48738 10.744C6.48738 10.4773 6.43671 10.248 6.33538 10.056C6.23938 9.864 6.10604 9.69867 5.93538 9.56C5.76471 9.42133 5.56471 9.30133 5.33538 9.2C5.10604 9.09867 4.86071 9.00533 4.59938 8.92L4.32738 12.904C4.67404 12.872 4.98071 12.7973 5.24738 12.68C5.51938 12.5573 5.74604 12.4027 5.92738 12.216C6.11404 12.0293 6.25271 11.8133 6.34338 11.568C6.43938 11.3173 6.48738 11.0427 6.48738 10.744ZM2.04738 5.432C2.04738 5.688 2.09271 5.912 2.18338 6.104C2.27404 6.29067 2.39938 6.456 2.55938 6.6C2.71938 6.744 2.90604 6.86933 3.11938 6.976C3.33271 7.08267 3.56471 7.17867 3.81538 7.264L4.05538 3.656C3.70871 3.688 3.40738 3.75733 3.15138 3.864C2.90071 3.97067 2.69271 4.104 2.52738 4.264C2.36738 4.424 2.24738 4.60533 2.16738 4.808C2.08738 5.00533 2.04738 5.21333 2.04738 5.432Z" fill="#1B1A3D"/>
</svg>
