<svg width="24" height="18" viewBox="0 0 24 18" fill="none" xmlns="http://www.w3.org/2000/svg">
<path d="M2.48779 15.8369C2.71817 15.9485 2.97674 16.0111 3.24992 16.0111H20.7499C21.0231 16.0111 21.2817 15.9485 21.512 15.8369L14.6187 9.349L12.3708 11.2002C12.1554 11.3776 11.8445 11.3776 11.6291 11.2002L9.38119 9.349L2.48779 15.8369ZM1.66686 15.008C1.67226 15.0025 1.6778 14.9971 1.68346 14.9918L8.47332 8.60134L1.71243 3.03355C1.69768 3.0214 1.68369 3.00869 1.67045 2.99546C1.56113 3.22391 1.49992 3.47976 1.49992 3.74992V14.2611C1.49992 14.5283 1.5598 14.7815 1.66686 15.008ZM22.333 15.008C22.44 14.7815 22.4999 14.5283 22.4999 14.2611V3.74992C22.4999 3.47977 22.4387 3.22391 22.3294 2.99547C22.3162 3.00869 22.3022 3.0214 22.2874 3.03355L15.5265 8.60134L22.3164 14.9918C22.322 14.9971 22.3276 15.0025 22.333 15.008ZM21.5018 2.1692C21.274 2.06067 21.019 1.99992 20.7499 1.99992H3.24992C2.9808 1.99992 2.72587 2.06067 2.49809 2.1692L11.9999 9.99424L21.5018 2.1692ZM3.24992 0.833252H20.7499C22.3608 0.833252 23.6666 2.13909 23.6666 3.74992V14.2611C23.6666 15.872 22.3608 17.1778 20.7499 17.1778H3.24992C1.63909 17.1778 0.333252 15.872 0.333252 14.2611V3.74992C0.333252 2.13909 1.63909 0.833252 3.24992 0.833252Z" fill="white"/>
</svg>
