<svg width="28" height="28" viewBox="0 0 28 28" fill="none" xmlns="http://www.w3.org/2000/svg">
<path d="M14 28C6.26801 28 0 21.732 0 14C0 6.26801 6.26801 0 14 0C21.732 0 28 6.26801 28 14C28 21.732 21.732 28 14 28ZM14 26.6C20.9588 26.6 26.6 20.9588 26.6 14C26.6 7.04121 20.9588 1.4 14 1.4C7.04121 1.4 1.4 7.04121 1.4 14C1.4 20.9588 7.04121 26.6 14 26.6ZM9.8 20.3C9.8 20.6866 9.4866 21 9.1 21C8.7134 21 8.4 20.6866 8.4 20.3C8.4 17.5938 10.5938 15.4 13.3 15.4H14.7249C17.4311 15.4 19.625 17.5938 19.625 20.3001C19.625 20.6867 19.3116 21.0001 18.925 21.0001C18.5384 21.0001 18.225 20.6867 18.225 20.3001C18.225 18.367 16.6579 16.8 14.7249 16.8H13.3C11.367 16.8 9.8 18.367 9.8 20.3ZM9.8 12.6C9.0268 12.6 8.4 11.9732 8.4 11.2C8.4 10.4268 9.0268 9.8 9.8 9.8C10.5732 9.8 11.2 10.4268 11.2 11.2C11.2 11.9732 10.5732 12.6 9.8 12.6ZM18.2 12.6C17.4268 12.6 16.8 11.9732 16.8 11.2C16.8 10.4268 17.4268 9.8 18.2 9.8C18.9732 9.8 19.6 10.4268 19.6 11.2C19.6 11.9732 18.9732 12.6 18.2 12.6Z" fill="#2B44DC"/>
</svg>
