<svg width="48" height="48" viewBox="0 0 48 48" fill="none" xmlns="http://www.w3.org/2000/svg">
<path d="M10.5 32C8.1 31.2 5.83333 26 5 23.5L7 21.5L10.5 16L16.5 11.5L24.5 10.5L29.5 11.5L36 15C37 16 39.2 18.1 40 18.5C40.8 18.9 42.3333 22 43 23.5L42 26L37 32C35.3333 33 30.5 35.4 24.5 37C17 39 13.5 33 10.5 32Z" fill="#EDEDFD"/>
<path d="M4.06764 23.6386C8.33618 12.6303 20.7205 7.16661 31.7289 11.4352C37.3309 13.6073 41.7602 18.0367 43.9324 23.6386C44.0226 23.8712 44.0226 24.1291 43.9324 24.3617C39.6638 35.37 27.2795 40.8337 16.2711 36.5652C10.6691 34.393 6.23984 29.9637 4.06764 24.3617C3.97745 24.1291 3.97745 23.8712 4.06764 23.6386ZM16.9942 34.7004C26.8514 38.5226 37.9257 33.7362 41.9233 24.0003C39.9066 19.0935 35.9626 15.2219 31.0058 13.2999C21.1486 9.4777 10.0743 14.2641 6.07669 24.0001C8.09343 28.9069 12.0374 32.7784 16.9942 34.7004ZM24 32.0002C19.5817 32.0002 16 28.4184 16 24.0002C16 19.5819 19.5817 16.0002 24 16.0002C28.4183 16.0002 32 19.5819 32 24.0002C32 28.4184 28.4183 32.0002 24 32.0002ZM24 30.0002C27.3137 30.0002 30 27.3139 30 24.0002C30 20.6865 27.3137 18.0002 24 18.0002C20.6863 18.0002 18 20.6865 18 24.0002C18 27.3139 20.6863 30.0002 24 30.0002Z" fill="#131CE7"/>
</svg>
