<svg width="56" height="56" viewBox="0 0 56 56" fill="none" xmlns="http://www.w3.org/2000/svg">
<path d="M12.5 26V9.5L15 8.5L23 8L28 8.5L29.5 11.5V13H43L36 22L43 31.5H31L29.5 30V28.5L28 27H13.5L12.5 26Z" fill="#E7E8FD"/>
<path d="M30.3334 11.6667H43.1667C44.1281 11.6667 44.6769 12.7643 44.1001 13.5334L37.6251 22.1667L44.1001 30.8001C44.6769 31.5692 44.1281 32.6667 43.1667 32.6667H31.5001C29.5671 32.6667 28.0001 31.0997 28.0001 29.1667C28.0001 28.5224 27.4777 28.0001 26.8334 28.0001H14.0001V47.8334C14.0001 48.4777 13.4777 49.0001 12.8334 49.0001C12.1891 49.0001 11.6667 48.4777 11.6667 47.8334V10.4829C11.6667 8.54991 13.2338 6.98291 15.1667 6.98291H26.8334C28.7664 6.98291 30.3334 8.54991 30.3334 10.4829V11.6667ZM30.3334 14.0001V17.5001C30.3334 18.1444 29.8111 18.6667 29.1668 18.6667C28.5224 18.6667 28.0001 18.1444 28.0001 17.5001V12.838C28.0001 12.8365 28.0001 12.8349 28.0001 12.8334C28.0001 12.8319 28.0001 12.8303 28.0001 12.8288V10.4829C28.0001 9.83858 27.4778 9.31624 26.8334 9.31624H15.1667C14.5224 9.31624 14.0001 9.83858 14.0001 10.4829V25.6667H26.8334C28.7664 25.6667 30.3334 27.2337 30.3334 29.1667C30.3334 29.8111 30.8557 30.3334 31.5001 30.3334H40.8334L35.2334 22.8667C34.9223 22.4519 34.9223 21.8815 35.2334 21.4667L40.8334 14.0001H30.3334Z" fill="#131CE7"/>
</svg>
