<svg width="20" height="26" viewBox="0 0 20 26" fill="none" xmlns="http://www.w3.org/2000/svg">
<path d="M11.3333 2.84375H19.125C19.7087 2.84375 20.0419 3.51012 19.6917 3.97708L15.7604 9.21875L19.6917 14.4604C20.0419 14.9274 19.7087 15.5937 19.125 15.5937H12.0417C10.8681 15.5937 9.91667 14.6424 9.91667 13.4687C9.91667 13.0775 9.59953 12.7604 9.20833 12.7604H1.41667V24.8021C1.41667 25.1933 1.09953 25.5104 0.708333 25.5104C0.317132 25.5104 0 25.1933 0 24.8021V2.125C0 0.951395 0.951395 0 2.125 0H9.20834C10.3819 0 11.3333 0.951395 11.3333 2.125V2.84375ZM11.3333 4.26041V6.38541C11.3333 6.77662 11.0162 7.09375 10.625 7.09375C10.2338 7.09375 9.91667 6.77662 9.91667 6.38541V3.55489C9.91667 3.55396 9.91667 3.55302 9.91667 3.55208C9.91667 3.55114 9.91667 3.5502 9.91667 3.54927V2.125C9.91667 1.7338 9.59954 1.41667 9.20834 1.41667H2.125C1.7338 1.41667 1.41667 1.7338 1.41667 2.125V11.3437H9.20833C10.3819 11.3437 11.3333 12.2951 11.3333 13.4687C11.3333 13.8599 11.6505 14.1771 12.0417 14.1771H17.7083L14.3083 9.64375C14.1194 9.3919 14.1194 9.0456 14.3083 8.79375L17.7083 4.26041H11.3333Z" fill="white"/>
</svg>
