<svg width="43" height="45" viewBox="0 0 43 45" fill="none" xmlns="http://www.w3.org/2000/svg">
<path d="M34 35.3333V5.52083C34 3.69139 32.5729 2.20833 30.8125 2.20833H7.93143C8.29304 2.85797 8.5 3.6122 8.5 4.41667V39.75C8.5 40.9696 9.4514 41.9583 10.625 41.9583C11.7986 41.9583 12.75 40.9696 12.75 39.75V36.4375C12.75 35.8277 13.2257 35.3333 13.8125 35.3333H34ZM36.125 35.3333H41.4375C42.0243 35.3333 42.5 35.8277 42.5 36.4375V38.6458C42.5 41.6949 40.1215 44.1667 37.1875 44.1667H10.625C8.27779 44.1667 6.375 42.1893 6.375 39.75V8.83333H4.25C1.90279 8.83333 0 6.85593 0 4.41667C0 1.97741 1.90279 0 4.25 0H30.8125C33.7465 0 36.125 2.47176 36.125 5.52083V35.3333ZM14.875 37.5417V39.75C14.875 40.5545 14.668 41.3087 14.3064 41.9583H37.1875C38.9479 41.9583 40.375 40.4753 40.375 38.6458V37.5417H14.875ZM6.375 6.625V4.41667C6.375 3.19704 5.42361 2.20833 4.25 2.20833C3.0764 2.20833 2.125 3.19704 2.125 4.41667C2.125 5.6363 3.0764 6.625 4.25 6.625H6.375ZM13.8125 11.0417C13.2257 11.0417 12.75 10.5473 12.75 9.9375C12.75 9.32769 13.2257 8.83333 13.8125 8.83333H28.6875C29.2743 8.83333 29.75 9.32769 29.75 9.9375C29.75 10.5473 29.2743 11.0417 28.6875 11.0417H13.8125ZM13.8125 17.6667C13.2257 17.6667 12.75 17.1723 12.75 16.5625C12.75 15.9527 13.2257 15.4583 13.8125 15.4583H28.6875C29.2743 15.4583 29.75 15.9527 29.75 16.5625C29.75 17.1723 29.2743 17.6667 28.6875 17.6667H13.8125ZM13.8125 24.2917C13.2257 24.2917 12.75 23.7973 12.75 23.1875C12.75 22.5777 13.2257 22.0833 13.8125 22.0833H28.6875C29.2743 22.0833 29.75 22.5777 29.75 23.1875C29.75 23.7973 29.2743 24.2917 28.6875 24.2917H13.8125ZM13.8125 30.9167C13.2257 30.9167 12.75 30.4223 12.75 29.8125C12.75 29.2027 13.2257 28.7083 13.8125 28.7083H24.4375C25.0243 28.7083 25.5 29.2027 25.5 29.8125C25.5 30.4223 25.0243 30.9167 24.4375 30.9167H13.8125Z" fill="#131CE7"/>
</svg>
