<svg width="48" height="48" viewBox="0 0 48 48" fill="none" xmlns="http://www.w3.org/2000/svg">
<path d="M3 33.5V28.5V14L5 11.5L9 11H39.5L43 12L45 14L45.5 33L43 36.5L9 37L5 36L3 33.5Z" fill="#E9EAFD"/>
<path d="M10 12V13C10 15.7614 7.76142 18 5 18H4V30H5.08276C7.84419 30 10.0828 32.2386 10.0828 35V36H38V35C38 32.2386 40.2386 30 43 30H44V18H43C40.2386 18 38 15.7614 38 13V12H10ZM8 12H7C5.34315 12 4 13.3431 4 15V16H5C6.65685 16 8 14.6569 8 13V12ZM8.08276 36V35C8.08276 33.3431 6.73962 32 5.08276 32H4V33C4 34.6569 5.34315 36 7 36H8.08276ZM9.4503 38C9.33653 38.045 9.21253 38.0697 9.08276 38.0697C8.95299 38.0697 8.82899 38.045 8.71522 38H7C4.23858 38 2 35.7614 2 33V15C2 12.2386 4.23858 10 7 10H41C43.7614 10 46 12.2386 46 15V33C46 35.7614 43.7614 38 41 38H9.4503ZM40 36H41C42.6569 36 44 34.6569 44 33V32H43C41.3431 32 40 33.3431 40 35V36ZM40 12V13C40 14.6569 41.3431 16 43 16H44V15C44 13.3431 42.6569 12 41 12H40ZM24 32C19.5817 32 16 28.4183 16 24C16 19.5817 19.5817 16 24 16C28.4183 16 32 19.5817 32 24C32 28.4183 28.4183 32 24 32ZM24 30C27.3137 30 30 27.3137 30 24C30 20.6863 27.3137 18 24 18C20.6863 18 18 20.6863 18 24C18 27.3137 20.6863 30 24 30Z" fill="#2B44DC"/>
</svg>
