<svg width="46" height="46" viewBox="0 0 46 46" fill="none" xmlns="http://www.w3.org/2000/svg">
<path d="M37.4999 29C36.6999 36.6 30.1666 39.1667 26.9999 39.5C24.3333 39.6667 17.8999 39.9 13.4999 39.5C9.09995 39.1 8.33328 37 8.49995 36V21.5V9.5L10.4999 7L12.9999 6.5L34.9999 7L36.9999 9.5C37.4999 12.8333 38.2999 21.4 37.4999 29Z" fill="#EDEDFD"/>
<path d="M36.4167 27.7917V10.5417C36.4167 8.95385 35.1296 7.66667 33.5417 7.66667H12.4584C10.8706 7.66667 9.58341 8.95385 9.58341 10.5417V35.4583C9.58341 37.0462 10.8706 38.3333 12.4584 38.3333H25.8751C27.4629 38.3333 28.7501 37.0462 28.7501 35.4583C28.7501 32.812 30.8954 30.6667 33.5417 30.6667C35.1296 30.6667 36.4167 29.3795 36.4167 27.7917ZM35.4612 32.1834C34.8735 32.4406 34.2243 32.5833 33.5417 32.5833C31.9539 32.5833 30.6667 33.8705 30.6667 35.4583C30.6667 36.1409 30.524 36.7901 30.2668 37.3778C32.5592 36.3258 34.4092 34.4758 35.4612 32.1834ZM7.66675 10.5417C7.66675 7.8953 9.81205 5.75 12.4584 5.75H33.5417C36.1881 5.75 38.3334 7.8953 38.3334 10.5417V27.7917C38.3334 34.6722 32.7556 40.25 25.8751 40.25H12.4584C9.81205 40.25 7.66675 38.1047 7.66675 35.4583V10.5417ZM16.2917 17.25C15.7625 17.25 15.3334 16.8209 15.3334 16.2917C15.3334 15.7624 15.7625 15.3333 16.2917 15.3333H29.7084C30.2377 15.3333 30.6667 15.7624 30.6667 16.2917C30.6667 16.8209 30.2377 17.25 29.7084 17.25H16.2917ZM16.2917 23C15.7625 23 15.3334 22.5709 15.3334 22.0417C15.3334 21.5124 15.7625 21.0833 16.2917 21.0833H29.7084C30.2377 21.0833 30.6667 21.5124 30.6667 22.0417C30.6667 22.5709 30.2377 23 29.7084 23H16.2917ZM16.2917 28.75C15.7625 28.75 15.3334 28.3209 15.3334 27.7917C15.3334 27.2624 15.7625 26.8333 16.2917 26.8333H25.8751C26.4044 26.8333 26.8334 27.2624 26.8334 27.7917C26.8334 28.3209 26.4044 28.75 25.8751 28.75H16.2917Z" fill="#131CE7"/>
</svg>
