<svg width="21" height="21" viewBox="0 0 21 21" fill="none" xmlns="http://www.w3.org/2000/svg">
<path d="M1.05 2.62414V4.73035C1.05 13.1361 7.86646 19.9503 16.275 19.9503H18.375C19.2448 19.9503 19.95 19.2454 19.95 18.3759V15.6834C19.95 15.0057 19.5162 14.4041 18.8731 14.1898L15.5306 13.076C14.8568 12.8515 14.1161 13.1055 13.7221 13.6963L12.9567 14.844C12.5627 15.4348 11.8219 15.6889 11.1481 15.4644L9.54648 14.9306C7.90399 14.3833 6.6438 13.0516 6.18826 11.3818L5.52985 8.96847C5.30991 8.16229 5.75828 7.32476 6.55129 7.06051L7.18398 6.84969C7.84589 6.62913 8.24891 5.95996 8.13421 5.27197L7.6496 2.36529C7.52303 1.6061 6.86595 1.04965 6.09603 1.04965H2.625C1.75515 1.04965 1.05 1.75457 1.05 2.62414ZM0 2.62414C0 1.17487 1.17525 0 2.625 0H6.09603C7.37924 0 8.47436 0.927404 8.68532 2.19273L9.16992 5.09941C9.36957 6.29688 8.66809 7.46158 7.51602 7.84548L6.88333 8.0563C6.619 8.14439 6.46954 8.42356 6.54285 8.69229L7.20126 11.1057C7.56443 12.4369 8.56909 13.4985 9.87852 13.9349L11.4802 14.4686C11.7048 14.5434 11.9517 14.4587 12.083 14.2618L12.8484 13.1141C13.5051 12.1294 14.7397 11.706 15.8627 12.0802L19.2051 13.194C20.277 13.5511 21 14.5539 21 15.6834V18.3759C21 19.8251 19.8247 21 18.375 21H16.275C7.28657 21 0 13.7158 0 4.73035V2.62414Z" fill="white"/>
</svg>
