<svg width="46" height="46" viewBox="0 0 46 46" fill="none" xmlns="http://www.w3.org/2000/svg">
<path d="M12.65 36.225V41.4H17.825L18.4 37.375H29.325V41.4H32.2H35.65L35.075 37.95L35.65 33.35L39.6749 28.175L43.125 27.6V20.125H39.0999L37.375 16.675V14.95V9.2L36.7999 8.625H35.65L32.775 10.35L31.625 13.225C30.8583 13.0333 28.9799 12.65 27.6 12.65H18.975L14.375 13.8L8.04995 18.4L6.32495 23.575L7.47495 29.9L10.35 34.5L12.65 36.225Z" fill="#EDEDFD"/>
<ellipse cx="22.4249" cy="8.6251" rx="4.025" ry="4.025" fill="#EDEDFD"/>
<path d="M5.91493 26.7681C3.64618 26.39 1.91675 24.4179 1.91675 22.0418V20.1252C1.91675 19.5959 2.34581 19.1668 2.87508 19.1668C3.40435 19.1668 3.83341 19.5959 3.83341 20.1252V22.0418C3.83341 23.2982 4.63934 24.3664 5.76242 24.7576C5.7542 24.495 5.75008 24.2286 5.75008 23.9585C5.75008 17.2178 12.6714 11.5002 23.9584 11.5002C26.6113 11.5002 28.9595 11.7548 31.0042 12.2681C31.8939 9.57196 34.4336 7.66683 37.3751 7.66683C37.9044 7.66683 38.3334 8.09589 38.3334 8.62516V16.5507C38.9804 17.335 39.5149 18.2079 39.9362 19.1668H43.1251C43.6544 19.1668 44.0834 19.5959 44.0834 20.1252V27.7918C44.0834 28.3211 43.6544 28.7502 43.1251 28.7502H40.1636C39.8339 30.569 38.5648 32.3198 36.4167 34.0138V41.2085C36.4167 41.7378 35.9877 42.1668 35.4584 42.1668H29.7084C29.1791 42.1668 28.7501 41.7378 28.7501 41.2085V38.3335H19.1667V41.2085C19.1667 41.7378 18.7377 42.1668 18.2084 42.1668H12.4584C11.9291 42.1668 11.5001 41.7378 11.5001 41.2085V36.0334C8.3126 34.2256 6.45355 31.1086 5.91493 26.7681ZM32.6444 13.6078C32.552 14.1823 31.9731 14.5427 31.4168 14.3718C29.3508 13.7372 26.8641 13.4168 23.9584 13.4168C13.6577 13.4168 7.66675 18.3659 7.66675 23.9585C7.66675 29.3731 9.41214 32.8639 12.887 34.6013C13.2117 34.7637 13.4167 35.0955 13.4167 35.4585V40.2502H17.2501V37.3752C17.2501 36.8459 17.6791 36.4168 18.2084 36.4168H29.7084C30.2377 36.4168 30.6667 36.8459 30.6667 37.3752V40.2502H34.5001V33.5418C34.5001 33.2402 34.6421 32.9561 34.8834 32.7752C37.2213 31.0218 38.3334 29.3536 38.3334 27.7918C38.3334 27.2626 38.7625 26.8335 39.2917 26.8335H42.1667V21.0835H39.2917C38.8923 21.0835 38.5347 20.8357 38.3944 20.4617C37.9778 19.3507 37.3992 18.3783 36.6571 17.5388C36.5022 17.3636 36.4167 17.1379 36.4167 16.9041V9.67974C34.4908 10.0718 32.9635 11.6224 32.6444 13.6078ZM19.1667 8.62516C19.1667 9.15444 18.7377 9.5835 18.2084 9.5835C17.6791 9.5835 17.2501 9.15444 17.2501 8.62516C17.2501 5.9788 19.3954 3.8335 22.0417 3.8335H22.0892C24.7358 3.8335 26.8812 5.97893 26.8812 8.62546C26.8812 9.15473 26.4521 9.58379 25.9229 9.58379C25.3936 9.58379 24.9645 9.15473 24.9645 8.62546C24.9645 7.03748 23.6772 5.75016 22.0892 5.75016H22.0417C20.4539 5.75016 19.1667 7.03734 19.1667 8.62516ZM32.5834 23.0002C31.5249 23.0002 30.6667 22.142 30.6667 21.0835C30.6667 20.025 31.5249 19.1668 32.5834 19.1668C33.642 19.1668 34.5001 20.025 34.5001 21.0835C34.5001 22.142 33.642 23.0002 32.5834 23.0002Z" fill="#131CE7"/>
</svg>
