<svg width="52" height="52" viewBox="0 0 52 52" fill="none" xmlns="http://www.w3.org/2000/svg">
<path d="M43 25.5L25 7.5H20L10 8L7.5 10V25L21 38L28 44.5L32.5 43L43.5 33L44 29.5L43 25.5Z" fill="#EDEDFD"/>
<path d="M6.5 11.9167C6.5 8.92512 8.92512 6.5 11.9167 6.5H24.9167C25.204 6.5 25.4795 6.61414 25.6827 6.8173L43.6724 24.807C46.1262 27.2608 46.1262 31.2392 43.6724 33.693L33.693 43.6724C31.2392 46.1262 27.2608 46.1262 24.807 43.6724L6.8173 25.6827C6.61414 25.4795 6.5 25.204 6.5 24.9167V11.9167ZM24.4679 8.66667H11.9167C10.1217 8.66667 8.66667 10.1217 8.66667 11.9167V24.4679L26.3391 42.1403C27.9467 43.748 30.5533 43.748 32.1609 42.1403L42.1403 32.1609C43.748 30.5533 43.748 27.9467 42.1403 26.3391L24.4679 8.66667ZM17.3333 15.1667C16.1367 15.1667 15.1667 16.1367 15.1667 17.3333C15.1667 18.5299 16.1367 19.5 17.3333 19.5C18.5299 19.5 19.5 18.5299 19.5 17.3333C19.5 16.1367 18.5299 15.1667 17.3333 15.1667ZM17.3333 13C19.7266 13 21.6667 14.9401 21.6667 17.3333C21.6667 19.7266 19.7266 21.6667 17.3333 21.6667C14.9401 21.6667 13 19.7266 13 17.3333C13 14.9401 14.9401 13 17.3333 13Z" fill="#131CE7"/>
</svg>
