<svg width="52" height="52" viewBox="0 0 52 52" fill="none" xmlns="http://www.w3.org/2000/svg">
<ellipse cx="26" cy="26" rx="21" ry="10" fill="#EDEDFD"/>
<ellipse cx="26" cy="26" rx="21" ry="10" transform="rotate(90 26 26)" fill="#EDEDFD"/>
<path d="M24.4394 34.6381L21.9839 32.1826C21.5608 31.7596 21.5608 31.0736 21.9839 30.6506C22.407 30.2275 23.0929 30.2275 23.516 30.6506L27.8493 34.9839C28.2724 35.407 28.2724 36.0929 27.8493 36.516L23.516 40.8493C23.0929 41.2724 22.407 41.2724 21.9839 40.8493C21.5608 40.4262 21.5608 39.7403 21.9839 39.3172L24.4928 36.8083C22.4611 36.7408 20.5032 36.5376 18.6592 36.2147C20.2311 41.8027 23.0163 45.4999 25.9999 45.4999C30.3443 45.4999 34.2679 37.6613 34.6381 27.5605L32.1826 30.016C31.7596 30.439 31.0736 30.439 30.6506 30.016C30.2275 29.5929 30.2275 28.907 30.6506 28.4839L34.9839 24.1506C35.407 23.7275 36.0929 23.7275 36.516 24.1506L40.8493 28.4839C41.2724 28.907 41.2724 29.5929 40.8493 30.016C40.4262 30.439 39.7403 30.439 39.3172 30.016L36.8083 27.507C36.4362 38.7078 31.9396 47.6666 25.9999 47.6666C21.6142 47.6666 18.0152 42.7822 16.2825 35.7174C9.21767 33.9846 4.33325 30.3857 4.33325 25.9999C4.33325 21.6142 9.21767 18.0152 16.2825 16.2825C18.0152 9.21767 21.6142 4.33325 25.9999 4.33325C29.2546 4.33325 32.1238 7.0175 34.1106 11.4994C34.353 12.0464 34.1062 12.6863 33.5592 12.9288C33.0122 13.1713 32.3723 12.9244 32.1298 12.3775C30.4524 8.59363 28.2145 6.49992 25.9999 6.49992C23.0163 6.49992 20.2311 10.1971 18.6592 15.7851C20.9554 15.3831 23.4281 15.1666 25.9999 15.1666C37.8932 15.1666 47.6666 19.7961 47.6666 25.9999C47.6666 29.2546 44.9823 32.1238 40.5005 34.1106C39.9535 34.353 39.3135 34.1062 39.071 33.5592C38.8286 33.0122 39.0754 32.3723 39.6224 32.1298C43.4062 30.4524 45.4999 28.2145 45.4999 25.9999C45.4999 21.4342 36.8424 17.3333 25.9999 17.3333C23.1813 17.3333 20.5104 17.6104 18.1008 18.1008C17.6104 20.5104 17.3333 23.1813 17.3333 25.9999C17.3333 28.8185 17.6104 31.4895 18.1008 33.899C20.0611 34.298 22.1943 34.5558 24.4394 34.6381ZM15.7851 18.6592C10.1971 20.2311 6.49992 23.0163 6.49992 25.9999C6.49992 28.9836 10.1971 31.7687 15.7851 33.3407C15.3831 31.0445 15.1666 28.5718 15.1666 25.9999C15.1666 23.4281 15.3831 20.9554 15.7851 18.6592Z" fill="#131CE7"/>
</svg>
