<svg width="18" height="18" viewBox="0 0 18 18" fill="none" xmlns="http://www.w3.org/2000/svg">
<path d="M13.5828 12.9346L17.1158 16.4676C17.2947 16.6466 17.2947 16.9368 17.1158 17.1158C16.9368 17.2947 16.6466 17.2947 16.4676 17.1158L12.9346 13.5828C11.6418 14.7241 9.94344 15.4167 8.08333 15.4167C4.03325 15.4167 0.75 12.1334 0.75 8.08333C0.75 4.03325 4.03325 0.75 8.08333 0.75C12.1334 0.75 15.4167 4.03325 15.4167 8.08333C15.4167 9.94344 14.7241 11.6418 13.5828 12.9346ZM8.08333 14.5C11.6272 14.5 14.5 11.6272 14.5 8.08333C14.5 4.53951 11.6272 1.66667 8.08333 1.66667C4.53951 1.66667 1.66667 4.53951 1.66667 8.08333C1.66667 11.6272 4.53951 14.5 8.08333 14.5Z" fill="#5B5B74"/>
</svg>
