<svg width="24" height="24" viewBox="0 0 24 24" fill="none" xmlns="http://www.w3.org/2000/svg">
<path d="M18.277 17.3538L23.3088 22.3856C23.5637 22.6406 23.5637 23.0539 23.3088 23.3088C23.0539 23.5637 22.6406 23.5637 22.3856 23.3088L17.3538 18.277C15.5126 19.9025 13.0937 20.8889 10.4444 20.8889C4.67614 20.8889 0 16.2128 0 10.4444C0 4.67614 4.67614 0 10.4444 0C16.2128 0 20.8889 4.67614 20.8889 10.4444C20.8889 13.0937 19.9025 15.5126 18.277 17.3538ZM10.4444 19.5833C15.4917 19.5833 19.5833 15.4917 19.5833 10.4444C19.5833 5.39718 15.4917 1.30556 10.4444 1.30556C5.39718 1.30556 1.30556 5.39718 1.30556 10.4444C1.30556 15.4917 5.39718 19.5833 10.4444 19.5833Z" fill="white"/>
</svg>
