<svg width="18" height="17" viewBox="0 0 18 17" fill="none" xmlns="http://www.w3.org/2000/svg">
<path d="M3.90366 15.8034C3.81269 15.9277 3.66576 16.0083 3.5 16.0083C3.33424 16.0083 3.18731 15.9277 3.09634 15.8034L0.146447 12.8536C-0.0488155 12.6583 -0.0488155 12.3417 0.146447 12.1464C0.341709 11.9512 0.658291 11.9512 0.853553 12.1464L3 14.2929V0.5C3 0.223858 3.22386 0 3.5 0C3.77614 0 4 0.223858 4 0.5V14.2929L6.14645 12.1464C6.34171 11.9512 6.65829 11.9512 6.85355 12.1464C7.04882 12.3417 7.04882 12.6583 6.85355 12.8536L3.90366 15.8034ZM9.5 2C9.22386 2 9 1.77614 9 1.5C9 1.22386 9.22386 1 9.5 1H17.5C17.7761 1 18 1.22386 18 1.5C18 1.77614 17.7761 2 17.5 2H9.5ZM9.5 6C9.22386 6 9 5.77614 9 5.5C9 5.22386 9.22386 5 9.5 5H15.5C15.7761 5 16 5.22386 16 5.5C16 5.77614 15.7761 6 15.5 6H9.5ZM9.5 10C9.22386 10 9 9.77614 9 9.5C9 9.22386 9.22386 9 9.5 9H13.5C13.7761 9 14 9.22386 14 9.5C14 9.77614 13.7761 10 13.5 10H9.5ZM9.5 14C9.22386 14 9 13.7761 9 13.5C9 13.2239 9.22386 13 9.5 13H11.5C11.7761 13 12 13.2239 12 13.5C12 13.7761 11.7761 14 11.5 14H9.5Z" fill="#5B5B74"/>
</svg>
