<svg width="28" height="28" viewBox="0 0 28 28" fill="none" xmlns="http://www.w3.org/2000/svg">
<path d="M14.4167 8.33507V20.7917C14.4167 21.1829 14.0995 21.5 13.7083 21.5C13.3171 21.5 13 21.1829 13 20.7917V8.33507L8.54253 12.7925C8.26591 13.0692 7.81742 13.0692 7.5408 12.7925C7.26418 12.5159 7.26418 12.0674 7.5408 11.7908L13.2075 6.12413C13.4841 5.84751 13.9326 5.84751 14.2092 6.12413L19.8759 11.7908C20.1525 12.0674 20.1525 12.5159 19.8759 12.7925C19.5992 13.0692 19.1508 13.0692 18.8741 12.7925L14.4167 8.33507ZM27.1667 13.7083C27.1667 21.1412 21.1412 27.1667 13.7083 27.1667C6.2755 27.1667 0.25 21.1412 0.25 13.7083C0.25 6.2755 6.2755 0.25 13.7083 0.25C21.1412 0.25 27.1667 6.2755 27.1667 13.7083ZM25.75 13.7083C25.75 7.0579 20.3588 1.66667 13.7083 1.66667C7.0579 1.66667 1.66667 7.0579 1.66667 13.7083C1.66667 20.3588 7.0579 25.75 13.7083 25.75C20.3588 25.75 25.75 20.3588 25.75 13.7083Z" fill="white"/>
</svg>
