<svg width="48" height="48" viewBox="0 0 48 48" fill="none" xmlns="http://www.w3.org/2000/svg">
<path d="M39.684 34.8288L31.3872 31.0584C34.1952 28.8624 36 25.4424 36 21.6C36 14.9736 30.6288 9.6 24 9.6C17.3736 9.6 12 14.9736 12 21.6C12 25.4424 13.8048 28.8624 16.6152 31.0584L8.3184 34.8288C7.5288 35.1888 6.8352 35.7096 6.2784 36.3504C3.8328 32.8488 2.4 28.5912 2.4 24C2.4 12.072 12.072 2.4 24 2.4C35.9304 2.4 45.6 12.072 45.6 24C45.6 28.5912 44.1672 32.8488 41.724 36.3504C41.1672 35.7096 40.4736 35.1888 39.684 34.8288ZM14.4 21.6C14.4 16.2984 18.6984 12 24 12C29.3016 12 33.6 16.2984 33.6 21.6C33.6 26.9016 29.3016 31.2 24 31.2C18.6984 31.2 14.4 26.9016 14.4 21.6ZM24 45.6C17.5512 45.6 11.7648 42.7752 7.8048 38.2944C8.1744 37.74 8.6928 37.2936 9.312 37.0152L19.1088 32.5608C20.6016 33.228 22.2576 33.6 24 33.6C25.7424 33.6 27.3984 33.228 28.8936 32.5608L38.6904 37.0152C39.3072 37.2936 39.8256 37.74 40.1952 38.2944C36.2376 42.7752 30.4488 45.6 24 45.6ZM24 0C10.7448 0 0 10.7448 0 24C0 37.2552 10.7448 48 24 48C37.2552 48 48 37.2552 48 24C48 10.7448 37.2552 0 24 0Z" fill="#131CE7"/>
</svg>
