<svg width="52" height="52" viewBox="0 0 52 52" fill="none" xmlns="http://www.w3.org/2000/svg">
<path d="M37.2762 17.0523L37 16.5C37.1834 16.7445 37.3264 16.9845 37.2762 17.0523L39.5 21.5C39.6667 21.8333 40 22.8 40 24C40 25.2 39.3334 27.1667 39 28L38 30.5L36 32.5L41 35L46 38L46.5 42.5L46 45.5L44 46.5L37 47H18.5L16.5 46L15 44C14.6667 42.8333 14 40.3 14 39.5C14 38.7 10.6667 38.1667 9.00003 38L6.00003 36C5.50003 35.1667 4.70003 33 5.50003 31C6.30003 29 7.83334 27.5 8.5 27L15 24.5L16 23.5L13 19C12 17 10.7 12.3 13.5 9.5C16.3 6.7 19.3333 5.33333 20.5 5L28 7.5L29 9C29.5 9.5 30.5 11.1 30.5 13.5C30.5 16.5 30.5 11.5 34.5 15C36.5265 16.7732 37.1895 17.1695 37.2762 17.0523Z" fill="#E7E8FD"/>
<path d="M17.0488 24.4806L8.26247 29.0034C7.18016 29.5606 6.49992 30.6758 6.49992 31.8931V33.5833C6.49992 35.3782 7.95501 36.8333 9.75007 36.8333C10.3484 36.8333 10.8334 37.3183 10.8334 37.9166C10.8334 38.5149 10.3484 38.9999 9.75007 38.9999C6.75841 38.9999 4.33325 36.5748 4.33325 33.5833V31.8931C4.33325 29.8643 5.46699 28.0055 7.27084 27.077L14.546 23.3321C12.224 21.3075 10.8333 18.3566 10.8333 15.1666C10.8333 9.1835 15.6835 4.33325 21.6666 4.33325C25.2992 4.33325 28.6286 6.1358 30.6322 9.08377C30.9685 9.57861 30.84 10.2524 30.3451 10.5887C29.8503 10.925 29.1765 10.7965 28.8402 10.3017C27.2358 7.94107 24.574 6.49992 21.6666 6.49992C16.8801 6.49992 12.9999 10.3801 12.9999 15.1666C12.9999 18.2253 14.5963 21.0072 17.1605 22.5714C17.6713 22.8829 17.8328 23.5496 17.5212 24.0604C17.4046 24.2516 17.2382 24.3938 17.0488 24.4806ZM25.916 33.7281L17.0717 37.7482C15.9115 38.2756 15.1666 39.4324 15.1666 40.7069V42.2499C15.1666 44.0448 16.6217 45.4999 18.4166 45.4999H42.2499C44.0448 45.4999 45.4999 44.0448 45.4999 42.2499V40.7069C45.4999 39.4324 44.755 38.2756 43.5948 37.7482L34.7505 33.7281C33.4015 34.3312 31.9065 34.6666 30.3333 34.6666C28.76 34.6666 27.265 34.3312 25.916 33.7281ZM23.6646 32.3714C21.1294 30.3886 19.4999 27.3012 19.4999 23.8333C19.4999 17.8502 24.3502 12.9999 30.3333 12.9999C36.3163 12.9999 41.1666 17.8502 41.1666 23.8333C41.1666 27.3012 39.5371 30.3886 37.0019 32.3714L44.4914 35.7757C46.4251 36.6547 47.6666 38.5828 47.6666 40.7069V42.2499C47.6666 45.2415 45.2415 47.6666 42.2499 47.6666H18.4166C15.425 47.6666 12.9999 45.2415 12.9999 42.2499V40.7069C12.9999 38.5828 14.2414 36.6547 16.1752 35.7757L23.6646 32.3714ZM30.3333 32.4999C35.1197 32.4999 38.9999 28.6197 38.9999 23.8333C38.9999 19.0468 35.1197 15.1666 30.3333 15.1666C25.5468 15.1666 21.6666 19.0468 21.6666 23.8333C21.6666 28.6197 25.5468 32.4999 30.3333 32.4999Z" fill="#131CE7"/>
</svg>
